<?xml version="1.0" standalone="no"?>
<!DOCTYPE svg PUBLIC "-//W3C//DTD SVG 20010904//EN"
 "http://www.w3.org/TR/2001/REC-SVG-20010904/DTD/svg10.dtd">
<svg version="1.0" xmlns="http://www.w3.org/2000/svg"
 width="632.000000pt" height="395.000000pt" viewBox="0 0 632.000000 395.000000"
 preserveAspectRatio="xMidYMid meet">

<g transform="translate(0.000000,395.000000) scale(0.100000,-0.100000)"
fill="#000000" stroke="none">
<path d="M3260 2538 c-65 -14 -77 -29 -57 -70 9 -18 17 -27 17 -20 0 14 48 16
83 3 13 -5 27 -19 30 -30 4 -19 1 -20 -60 -18 -53 2 -68 -1 -77 -15 -8 -14 -7
-21 6 -35 16 -15 19 -15 35 -1 16 14 20 14 31 2 17 -19 34 -14 47 14 11 25 51
37 71 21 9 -8 11 -16 4 -28 -10 -20 -2 -63 11 -55 5 2 17 34 28 69 43 137 -18
196 -169 163z"/>
<path d="M708 2511 c-29 -10 -51 -25 -57 -39 -6 -12 -23 -27 -37 -32 -20 -8
-25 -15 -21 -32 3 -12 2 -29 -3 -39 -6 -9 -7 -32 -3 -49 6 -35 67 -100 92
-100 30 0 42 -16 35 -44 -3 -15 -8 -25 -11 -22 -3 2 -18 0 -34 -6 -20 -7 -43
-32 -75 -84 -68 -109 -93 -175 -86 -232 7 -62 24 -87 80 -112 26 -12 55 -26
64 -31 10 -5 23 -9 30 -9 7 0 26 -7 43 -16 35 -18 70 -11 85 16 13 24 -9 40
-99 70 -71 24 -111 47 -111 64 0 6 9 19 20 29 11 9 20 23 20 31 0 8 4 16 8 18
8 3 64 93 98 157 8 15 9 32 4 46 -7 19 -6 22 11 18 28 -8 69 23 69 52 0 18 7
26 25 31 33 8 45 32 49 97 1 28 9 63 17 77 26 47 19 79 -28 117 -33 27 -49 34
-67 29 -14 -3 -28 -2 -31 4 -8 13 -31 11 -87 -9z m54 -253 c-16 -16 -37 4 -28
28 6 16 8 16 23 1 13 -13 14 -19 5 -29z"/>
<path d="M4618 2513 c-10 -12 -15 -43 -16 -93 -2 -93 11 -138 44 -146 13 -3
24 -12 24 -20 0 -21 37 -54 60 -54 33 0 62 40 55 78 -3 18 -2 32 4 32 5 0 19
20 31 45 28 57 21 106 -20 147 -26 25 -35 28 -98 28 -53 0 -72 -4 -84 -17z"/>
<path d="M5431 2321 c-12 -41 -11 -46 5 -58 33 -24 59 -12 33 14 -7 7 -15 29
-18 50 l-6 38 -14 -44z"/>
<path d="M2021 2274 c0 -11 3 -14 6 -6 3 7 2 16 -1 19 -3 4 -6 -2 -5 -13z"/>
<path d="M1374 2231 c-37 -17 -45 -27 -72 -93 -37 -90 -61 -203 -45 -219 6 -6
31 -14 56 -16 l44 -5 5 -102 c3 -67 10 -113 22 -137 16 -35 20 -37 81 -44 58
-6 113 -3 189 12 l29 5 -7 82 c-17 213 -19 273 -8 280 6 4 30 -3 53 -14 45
-24 51 -21 68 29 18 55 14 66 -42 103 -29 20 -74 54 -100 76 -61 53 -83 60
-111 33 -12 -12 -34 -21 -48 -21 -26 0 -58 23 -58 41 0 13 -9 11 -56 -10z"/>
<path d="M5647 2220 c-32 -25 -35 -56 -11 -121 8 -24 24 -79 34 -123 11 -43
21 -80 23 -83 3 -2 30 -7 61 -10 70 -7 73 -1 57 121 -15 113 -36 189 -60 210
-30 28 -73 30 -104 6z"/>
<path d="M2190 2198 c-35 -24 -54 -65 -65 -141 -6 -37 -3 -48 17 -70 12 -14
36 -29 52 -33 l29 -7 -6 53 c-6 46 -4 53 14 57 11 3 26 21 34 39 14 34 46 54
86 54 25 0 40 -38 42 -108 2 -46 4 -50 15 -35 15 20 11 93 -8 133 -6 14 -28
37 -47 53 -47 35 -115 37 -163 5z"/>
<path d="M5420 2179 c-25 -22 -64 -54 -87 -71 -41 -30 -43 -34 -43 -84 0 -58
7 -68 44 -58 18 4 26 15 31 42 10 55 48 133 85 175 42 49 27 47 -30 -4z"/>
<path d="M3821 2134 c0 -11 3 -14 6 -6 3 7 2 16 -1 19 -3 4 -6 -2 -5 -13z"/>
<path d="M1117 2093 c-2 -5 -14 -59 -28 -122 -27 -127 -21 -121 -130 -142 -67
-12 -85 -21 -75 -37 3 -6 23 -6 48 -1 34 6 45 5 55 -8 7 -9 10 -19 8 -24 -3
-4 19 6 47 22 29 16 65 29 79 29 30 0 39 15 39 65 0 19 9 71 20 117 11 46 20
89 20 96 0 13 -76 18 -83 5z"/>
<path d="M3798 2018 c-18 -19 -37 -28 -58 -28 l-31 0 7 -47 c8 -56 20 -93 31
-93 5 0 29 8 56 17 52 19 51 16 34 113 l-12 65 -27 -27z"/>
<path d="M4024 2041 c4 -6 8 -29 8 -52 0 -22 3 -38 6 -35 2 3 13 1 24 -5 23
-13 21 -47 -5 -63 -15 -9 -22 -7 -37 12 l-19 23 -80 -41 c-61 -30 -81 -45 -81
-60 0 -11 2 -20 5 -20 2 0 38 16 79 35 41 19 79 35 85 35 5 0 11 -10 13 -22 4
-21 8 -19 52 26 37 37 45 51 35 57 -11 7 -11 9 1 9 9 1 6 6 -9 14 -23 13 -23
14 -5 25 17 10 16 11 -7 5 -22 -5 -28 -1 -39 26 -7 17 -17 33 -23 37 -6 3 -7
1 -3 -6z"/>
<path d="M4820 1871 c0 -144 2 -161 20 -184 11 -14 29 -29 40 -32 19 -6 20
-19 22 -462 2 -354 6 -457 16 -461 9 -3 12 93 12 457 0 383 2 461 14 461 7 0
25 12 40 26 23 23 26 35 26 90 0 58 3 68 35 110 26 34 35 55 35 84 0 21 -3 41
-7 43 -5 3 -26 -5 -48 -16 -29 -16 -39 -27 -37 -41 3 -13 -17 -39 -63 -82 -36
-35 -70 -64 -76 -64 -6 0 -9 40 -7 103 l3 102 33 3 c45 4 30 22 -19 22 l-39 0
0 -159z m170 -66 c0 -10 -10 -15 -27 -15 -26 0 -26 1 -7 15 25 19 34 19 34 0z
m0 -69 c0 -30 -43 -66 -77 -66 -26 0 -73 41 -73 64 0 15 27 20 113 24 33 2 37
-1 37 -22z"/>
<path d="M1974 1837 c-6 -18 13 -67 26 -67 5 0 10 11 10 25 0 18 5 25 19 25
10 0 24 7 31 15 11 13 6 15 -34 15 -30 0 -48 -5 -52 -13z"/>
<path d="M1921 1734 c0 -11 3 -14 6 -6 3 7 2 16 -1 19 -3 4 -6 -2 -5 -13z"/>
<path d="M2082 1625 c-18 -25 -32 -50 -32 -55 0 -4 18 -24 40 -43 37 -31 48
-35 119 -40 136 -9 231 -73 300 -202 23 -44 26 -61 26 -150 0 -93 -2 -105 -32
-165 -38 -76 -86 -123 -162 -159 -47 -22 -70 -26 -146 -26 -82 0 -97 3 -157
33 -191 94 -255 334 -137 511 29 44 55 69 96 92 l56 32 -24 18 c-13 10 -27 19
-31 19 -20 0 -138 -132 -164 -185 -27 -55 -29 -69 -29 -170 0 -104 2 -114 32
-176 79 -160 271 -257 432 -217 53 13 69 13 114 1 76 -19 100 -17 114 12 l11
25 -55 0 c-48 0 -54 2 -43 15 9 11 17 12 30 5 31 -17 74 -12 88 10 11 18 10
19 -19 13 -24 -4 -30 -3 -27 8 5 21 82 138 91 139 4 0 7 -11 7 -25 0 -36 23
-31 56 13 l29 37 0 172 c0 95 3 173 6 173 25 0 89 -129 89 -179 0 -27 3 -32
12 -23 17 17 -6 109 -41 164 -49 78 -137 130 -241 143 -30 4 -67 16 -83 27
-47 33 -132 58 -201 58 l-64 0 -7 58 c-10 84 -16 89 -53 37z m482 -264 c10
-11 20 -41 23 -68 l4 -48 -21 44 c-11 25 -30 60 -42 79 -20 32 -20 34 -2 24
11 -6 28 -19 38 -31z"/>
<path d="M3734 1616 c-3 -7 3 -83 13 -167 24 -212 22 -259 -21 -438 -20 -85
-33 -158 -29 -162 4 -4 20 -11 35 -14 26 -7 29 -4 57 58 16 36 45 107 63 158
l33 92 7 -69 c4 -38 10 -108 13 -156 6 -74 10 -88 26 -93 34 -11 58 4 63 38 6
44 26 560 26 674 l0 93 -27 -11 c-37 -15 -191 -15 -226 -1 -22 9 -29 9 -33 -2z"/>
<path d="M4566 1436 c-4 -105 -13 -287 -19 -404 l-12 -213 -50 -27 c-77 -41
-67 -56 37 -60 l86 -3 4 58 c4 59 62 359 99 511 18 76 19 94 8 190 -6 59 -13
110 -16 115 -2 4 -19 7 -36 7 -18 0 -46 4 -63 9 l-31 9 -7 -192z"/>
<path d="M3176 1592 c-49 -230 -46 -450 10 -685 18 -74 24 -82 60 -73 l24 6
-2 198 c-3 175 0 209 21 306 18 88 22 125 16 184 -4 41 -12 75 -18 77 -7 2
-33 6 -59 9 -44 5 -47 4 -52 -22z"/>
<path d="M4828 1603 c7 -3 16 -2 19 1 4 3 -2 6 -13 5 -11 0 -14 -3 -6 -6z"/>
<path d="M2436 1513 c5 -17 17 -21 67 -27 143 -14 261 -113 311 -260 5 -15 9
-16 21 -6 21 17 19 33 -12 96 -57 117 -187 203 -319 212 -69 4 -73 3 -68 -15z"/>
<path d="M3482 1470 c0 -14 2 -19 5 -12 2 6 2 18 0 25 -3 6 -5 1 -5 -13z"/>
<path d="M2044 1412 c-142 -94 -197 -262 -133 -402 36 -77 68 -111 141 -150
56 -30 71 -34 143 -34 100 0 157 25 232 100 82 84 107 197 69 311 -30 91 -130
178 -226 198 -42 9 -31 -6 20 -25 55 -21 123 -83 156 -142 26 -48 29 -62 28
-143 0 -80 -3 -95 -28 -138 -35 -60 -86 -102 -154 -127 -254 -95 -491 200
-344 427 23 36 129 120 138 110 2 -1 10 -38 19 -82 9 -44 20 -83 23 -86 4 -4
24 -9 45 -12 41 -6 51 9 12 19 -39 10 -57 55 -53 130 2 46 -1 65 -10 69 -23 9
-35 5 -78 -23z"/>
<path d="M3471 1374 c0 -11 3 -14 6 -6 3 7 2 16 -1 19 -3 4 -6 -2 -5 -13z"/>
<path d="M4882 1370 c0 -14 2 -19 5 -12 2 6 2 18 0 25 -3 6 -5 1 -5 -13z"/>
<path d="M2203 1343 c9 -2 25 -2 35 0 9 3 1 5 -18 5 -19 0 -27 -2 -17 -5z"/>
<path d="M4742 1285 c0 -16 2 -22 5 -12 2 9 2 23 0 30 -3 6 -5 -1 -5 -18z"/>
<path d="M3332 1270 c0 -19 2 -27 5 -17 2 9 2 25 0 35 -3 9 -5 1 -5 -18z"/>
<path d="M1380 1250 c0 -5 7 -10 15 -10 8 0 15 5 15 10 0 6 -7 10 -15 10 -8 0
-15 -4 -15 -10z"/>
<path d="M2156 1179 c-14 -11 -26 -28 -26 -38 0 -26 37 -61 65 -61 28 0 65 35
65 61 0 19 -45 59 -65 59 -7 0 -24 -9 -39 -21z"/>
<path d="M2846 1182 c-11 -13 -20 -42 -23 -74 -12 -122 -106 -270 -138 -218
-4 6 5 24 20 42 36 42 67 106 62 126 -2 11 -11 0 -25 -31 -12 -26 -45 -72 -73
-103 -49 -51 -51 -55 -34 -68 24 -17 10 -38 -22 -34 -20 2 -34 -7 -62 -41
l-36 -44 40 7 c22 4 57 16 79 27 22 10 61 19 87 19 48 0 74 15 45 26 -23 9
-21 17 27 87 51 75 80 168 75 246 -3 53 -3 53 -22 33z"/>
<path d="M1375 1166 c-2 -6 -6 -84 -10 -173 -5 -138 -4 -163 8 -163 16 0 22
40 33 236 6 100 5 111 -11 111 -9 0 -18 -5 -20 -11z"/>
<path d="M3451 1114 c0 -11 3 -14 6 -6 3 7 2 16 -1 19 -3 4 -6 -2 -5 -13z"/>
<path d="M3442 1020 c0 -14 2 -19 5 -12 2 6 2 18 0 25 -3 6 -5 1 -5 -13z"/>
<path d="M4852 1020 c0 -14 2 -19 5 -12 2 6 2 18 0 25 -3 6 -5 1 -5 -13z"/>
<path d="M4761 944 c0 -11 3 -14 6 -6 3 7 2 16 -1 19 -3 4 -6 -2 -5 -13z"/>
<path d="M4770 828 c0 -4 -22 -19 -50 -33 -35 -18 -50 -31 -50 -45 0 -18 7
-20 84 -20 47 0 87 4 90 9 3 5 3 29 0 52 -6 42 -7 44 -40 44 -19 0 -34 -3 -34
-7z"/>
<path d="M560 780 l0 -50 83 0 c89 0 99 3 90 27 -7 19 -119 73 -150 73 -21 0
-23 -5 -23 -50z"/>
<path d="M808 782 c-2 -24 -1 -45 1 -48 2 -2 42 -4 88 -4 76 0 83 2 83 20 0
24 -90 74 -137 74 -30 1 -32 -1 -35 -42z"/>
<path d="M1385 811 c-6 -5 -21 -11 -35 -13 -20 -2 -25 -9 -25 -33 l0 -30 88
-3 c82 -3 87 -2 87 17 0 15 -15 28 -50 46 -57 29 -53 28 -65 16z"/>
<path d="M5627 794 c-32 -17 -47 -31 -47 -44 0 -18 7 -20 85 -20 l85 0 0 36
c0 29 -3 35 -16 30 -9 -4 -26 0 -38 8 -19 12 -27 11 -69 -10z"/>
<path d="M1591 801 c-7 -5 -22 -6 -32 -4 -16 5 -19 0 -19 -31 l0 -37 87 3
c101 3 113 15 54 52 -42 27 -67 32 -90 17z"/>
<path d="M3148 788 c-22 -12 -38 -30 -38 -40 0 -17 12 -18 160 -18 l160 0 0
34 c0 39 3 39 -152 35 -24 -1 -54 2 -68 5 -17 4 -38 -1 -62 -16z"/>
<path d="M3736 803 c-4 -4 -19 -7 -34 -8 -23 0 -27 -4 -27 -30 l0 -30 88 -3
c79 -3 87 -1 87 16 0 30 -93 75 -114 55z"/>
<path d="M3976 803 c-4 -4 -19 -7 -34 -8 -23 0 -27 -4 -27 -30 l0 -30 88 -3
c79 -3 87 -1 87 16 0 30 -93 75 -114 55z"/>
<path d="M5377 785 c-62 -43 -51 -55 53 -55 l90 0 0 35 c0 32 -2 35 -24 29
-13 -3 -27 -1 -30 5 -12 18 -50 12 -89 -14z"/>
</g>
</svg>
